<svg width="40" height="40" viewBox="0 0 40 40" fill="none" xmlns="http://www.w3.org/2000/svg">
<g clip-path="url(#clip0_1262_42)">
<rect y="16.6666" width="23.3333" height="23.3333" fill="#7595FD"/>
<path d="M30 26.6666H26.6667V25H13.3334V26.6666H10V25H3.33337V33.3333H36.6667V25H30V26.6666ZM33.3334 13.3333H28.3334V9.99996C28.3334 8.16663 26.8334 6.66663 25 6.66663H15C13.1667 6.66663 11.6667 8.16663 11.6667 9.99996V13.3333H6.66671C4.83337 13.3333 3.33337 14.8333 3.33337 16.6666V23.3333H10V20H13.3334V23.3333H26.6667V20H30V23.3333H36.6667V16.6666C36.6667 14.8333 35.1667 13.3333 33.3334 13.3333ZM25 13.3333H15V9.99996H25V13.3333Z" fill="white"/>
</g>
<defs>
<clipPath id="clip0_1262_42">
<rect width="40" height="40" fill="white"/>
</clipPath>
</defs>
</svg>
