<svg width="108" height="22" viewBox="0 0 108 22" fill="none" xmlns="http://www.w3.org/2000/svg">
<path d="M18.93 1.55998L18 5.54999H11.61L7.94999 21.36H2.78999L6.44999 5.54999H-1.44392e-05L0.929985 1.55998H18.93ZM16.5787 21.36L21.5287 -1.50204e-05H26.6287L24.3787 9.77999L23.8687 10.5C24.1287 9.65998 24.5187 8.90999 25.0387 8.24999C25.5587 7.58998 26.2087 7.05998 26.9887 6.65999C27.7687 6.25998 28.6587 6.05998 29.6587 6.05998C30.6587 6.05998 31.5087 6.28998 32.2087 6.74998C32.9287 7.20998 33.4287 7.85998 33.7087 8.69998C34.0087 9.53998 34.0287 10.54 33.7687 11.7L31.5187 21.36H26.4187L28.4887 12.51C28.6687 11.71 28.5987 11.09 28.2787 10.65C27.9587 10.19 27.4387 9.95998 26.7187 9.95998C26.1787 9.95998 25.6987 10.09 25.2787 10.35C24.8787 10.59 24.5287 10.96 24.2287 11.46C23.9487 11.94 23.7287 12.54 23.5687 13.26L21.6787 21.36H16.5787ZM43.32 21.63C41.84 21.63 40.54 21.35 39.42 20.79C38.3 20.21 37.43 19.41 36.81 18.39C36.19 17.37 35.88 16.18 35.88 14.82C35.88 13.14 36.22 11.65 36.9 10.35C37.6 9.02998 38.58 7.98998 39.84 7.22998C41.12 6.46999 42.64 6.08999 44.4 6.08999C45.86 6.08999 47.1 6.36998 48.12 6.92998C49.16 7.46998 49.95 8.23998 50.49 9.23998C51.03 10.24 51.3 11.42 51.3 12.78C51.3 13.16 51.28 13.56 51.24 13.98C51.2 14.4 51.12 14.81 51 15.21H39.18V12.45H47.67L46.26 13.23C46.34 12.95 46.39 12.71 46.41 12.51C46.43 12.31 46.44 12.12 46.44 11.94C46.44 11.42 46.35 10.99 46.17 10.65C45.99 10.31 45.74 10.06 45.42 9.89998C45.1 9.71998 44.72 9.62998 44.28 9.62998C43.56 9.62998 42.96 9.79998 42.48 10.14C42.02 10.48 41.65 10.93 41.37 11.49C41.09 12.03 40.89 12.62 40.77 13.26C40.67 13.9 40.62 14.52 40.62 15.12C40.62 15.76 40.74 16.3 40.98 16.74C41.24 17.18 41.58 17.52 42 17.76C42.44 17.98 42.95 18.09 43.53 18.09C44.25 18.09 44.83 17.93 45.27 17.61C45.71 17.27 46.05 16.85 46.29 16.35L50.49 18C50.15 18.76 49.62 19.41 48.9 19.95C48.2 20.49 47.37 20.91 46.41 21.21C45.47 21.49 44.44 21.63 43.32 21.63ZM54.5109 21.36V1.55998H64.1409C66.5809 1.57998 68.3809 2.04998 69.5409 2.96998C70.7009 3.86998 71.2809 5.17998 71.2809 6.89998C71.2809 8.01998 70.9509 8.98998 70.2909 9.80998C69.6309 10.61 68.6209 11.12 67.2609 11.34V11.37C68.7809 11.57 69.9109 12.1 70.6509 12.96C71.4109 13.8 71.7909 14.82 71.7909 16.02C71.7909 17.72 71.1909 19.04 69.9909 19.98C68.7909 20.9 66.9909 21.36 64.5909 21.36H54.5109ZM59.4909 17.73H63.7209C64.6609 17.73 65.3609 17.54 65.8209 17.16C66.2809 16.78 66.5109 16.23 66.5109 15.51C66.5109 14.81 66.2809 14.28 65.8209 13.92C65.3609 13.54 64.6609 13.35 63.7209 13.35H59.4909V17.73ZM59.4909 9.65998H63.2409C65.0809 9.65998 66.0009 8.93998 66.0009 7.49998C66.0009 6.05998 65.0809 5.33998 63.2409 5.33998H59.4909V9.65998ZM81.7987 6.05998C83.3787 6.05998 84.7587 6.36998 85.9387 6.98998C87.1387 7.58998 88.0687 8.47998 88.7287 9.65998C89.4087 10.82 89.7487 12.22 89.7487 13.86C89.7487 15.5 89.4087 16.91 88.7287 18.09C88.0687 19.25 87.1387 20.14 85.9387 20.76C84.7587 21.36 83.3787 21.66 81.7987 21.66C80.2587 21.66 78.8887 21.36 77.6887 20.76C76.4887 20.14 75.5487 19.25 74.8687 18.09C74.2087 16.91 73.8787 15.5 73.8787 13.86C73.8787 12.22 74.2087 10.82 74.8687 9.65998C75.5487 8.47998 76.4887 7.58998 77.6887 6.98998C78.8887 6.36998 80.2587 6.05998 81.7987 6.05998ZM81.7987 9.68998C81.2187 9.68998 80.7187 9.82998 80.2987 10.11C79.8787 10.39 79.5587 10.84 79.3387 11.46C79.1187 12.08 79.0087 12.88 79.0087 13.86C79.0087 14.84 79.1187 15.64 79.3387 16.26C79.5587 16.86 79.8787 17.31 80.2987 17.61C80.7187 17.89 81.2187 18.03 81.7987 18.03C82.3987 18.03 82.9087 17.89 83.3287 17.61C83.7487 17.31 84.0687 16.86 84.2887 16.26C84.5087 15.64 84.6187 14.84 84.6187 13.86C84.6187 12.88 84.5087 12.08 84.2887 11.46C84.0687 10.84 83.7487 10.39 83.3287 10.11C82.9087 9.82998 82.3987 9.68998 81.7987 9.68998ZM96.2074 6.35999L99.8674 13.11L101.547 12.96L107.457 21.36H101.607L97.8274 14.52H96.0574L90.3274 6.35999H96.2074ZM107.337 6.35999L101.667 14.46L99.7774 14.34L95.8474 21.36H90.1174L96.1474 12.9L97.8874 13.14L101.607 6.35999H107.337Z" fill="#2947A9"/>
</svg>
